<mxfile host="app.diagrams.net" agent="Mozilla/5.0 (Windows NT 10.0; Win64; x64; rv:131.0) Gecko/20100101 Firefox/131.0" version="24.8.3">
  <diagram name="Page-1" id="H2CKO6wTvdvPk2y0dN2f">
    <mxGraphModel dx="1195" dy="621" grid="1" gridSize="10" guides="1" tooltips="1" connect="1" arrows="1" fold="1" page="1" pageScale="1" pageWidth="850" pageHeight="1100" math="0" shadow="0">
      <root>
        <mxCell id="0" />
        <mxCell id="1" parent="0" />
        <mxCell id="wY15i3KDMr4KIe2DztnB-5" style="edgeStyle=orthogonalEdgeStyle;rounded=0;orthogonalLoop=1;jettySize=auto;html=1;entryX=0;entryY=0.5;entryDx=0;entryDy=0;" edge="1" parent="1" source="wY15i3KDMr4KIe2DztnB-1" target="wY15i3KDMr4KIe2DztnB-2">
          <mxGeometry relative="1" as="geometry" />
        </mxCell>
        <mxCell id="wY15i3KDMr4KIe2DztnB-6" value="&lt;font style=&quot;font-size: 10px;&quot;&gt;API Endpoints (GET, POST, PUT, DELETE)&lt;/font&gt;" style="edgeLabel;html=1;align=center;verticalAlign=middle;resizable=0;points=[];" vertex="1" connectable="0" parent="wY15i3KDMr4KIe2DztnB-5">
          <mxGeometry x="-0.1542" y="-1" relative="1" as="geometry">
            <mxPoint x="9" y="-1" as="offset" />
          </mxGeometry>
        </mxCell>
        <mxCell id="wY15i3KDMr4KIe2DztnB-1" value="&lt;div&gt;Front-End(React)&lt;/div&gt;" style="rounded=0;whiteSpace=wrap;html=1;" vertex="1" parent="1">
          <mxGeometry x="20" y="40" width="120" height="200" as="geometry" />
        </mxCell>
        <mxCell id="wY15i3KDMr4KIe2DztnB-7" style="edgeStyle=orthogonalEdgeStyle;rounded=0;orthogonalLoop=1;jettySize=auto;html=1;entryX=0;entryY=0.5;entryDx=0;entryDy=0;" edge="1" parent="1" source="wY15i3KDMr4KIe2DztnB-2" target="wY15i3KDMr4KIe2DztnB-3">
          <mxGeometry relative="1" as="geometry" />
        </mxCell>
        <mxCell id="wY15i3KDMr4KIe2DztnB-8" value="Sequelize ORM" style="edgeLabel;html=1;align=center;verticalAlign=middle;resizable=0;points=[];" vertex="1" connectable="0" parent="wY15i3KDMr4KIe2DztnB-7">
          <mxGeometry x="0.0886" relative="1" as="geometry">
            <mxPoint as="offset" />
          </mxGeometry>
        </mxCell>
        <mxCell id="wY15i3KDMr4KIe2DztnB-2" value="&lt;div&gt;Back-End(Express)&lt;/div&gt;&lt;div align=&quot;left&quot;&gt;&lt;ul style=&quot;font-size: 10px;&quot;&gt;&lt;li&gt;&lt;code&gt;/reservations&lt;/code&gt; (GET, POST, PUT, DELETE)&lt;/li&gt;&lt;li&gt;&lt;code&gt;/login&lt;/code&gt; (POST) για την αυθεντικοποίηση χρηστών.&lt;/li&gt;&lt;/ul&gt;&lt;/div&gt;" style="rounded=0;whiteSpace=wrap;html=1;" vertex="1" parent="1">
          <mxGeometry x="328" y="40" width="195" height="200" as="geometry" />
        </mxCell>
        <mxCell id="wY15i3KDMr4KIe2DztnB-3" value="&lt;div&gt;Database(MySQL)&lt;/div&gt;&lt;div&gt;&lt;br&gt;&lt;/div&gt;&lt;div align=&quot;left&quot; style=&quot;font-size: 8px;&quot;&gt;&lt;span class=&quot;hljs-bullet&quot;&gt;-&lt;/span&gt; Users:&lt;br&gt;&lt;ul style=&quot;padding-left: 20px;&quot;&gt;&lt;li&gt;&lt;span class=&quot;hljs-bullet&quot;&gt;  -&lt;/span&gt; id (primary key)&lt;/li&gt;&lt;li&gt;&lt;span class=&quot;hljs-bullet&quot;&gt;  -&lt;/span&gt; username&lt;/li&gt;&lt;li&gt;&lt;span class=&quot;hljs-bullet&quot;&gt;  -&lt;/span&gt; password&lt;/li&gt;&lt;li&gt;&lt;span class=&quot;hljs-bullet&quot;&gt;  -&lt;/span&gt; email&lt;/li&gt;&lt;/ul&gt;&lt;br&gt;&lt;span class=&quot;hljs-bullet&quot;&gt;-&lt;/span&gt; Reservations:&lt;br&gt;&lt;ul style=&quot;padding-left: 20px;&quot;&gt;&lt;li&gt;&lt;span class=&quot;hljs-bullet&quot;&gt;  -&lt;/span&gt; id (primary key)&lt;/li&gt;&lt;li&gt;&lt;span class=&quot;hljs-bullet&quot;&gt;  -&lt;/span&gt; movie&lt;/li&gt;&lt;li&gt;&lt;span class=&quot;hljs-bullet&quot;&gt;  -&lt;/span&gt; seat&lt;/li&gt;&lt;li&gt;&lt;span class=&quot;hljs-bullet&quot;&gt;  -&lt;/span&gt; user&lt;span class=&quot;hljs-emphasis&quot;&gt;_id (foreign key)&lt;/span&gt;&lt;/li&gt;&lt;/ul&gt;&lt;/div&gt;" style="rounded=0;whiteSpace=wrap;html=1;" vertex="1" parent="1">
          <mxGeometry x="710" y="40" width="120" height="200" as="geometry" />
        </mxCell>
        <mxCell id="wY15i3KDMr4KIe2DztnB-9" style="edgeStyle=orthogonalEdgeStyle;rounded=0;orthogonalLoop=1;jettySize=auto;html=1;entryX=0.5;entryY=1;entryDx=0;entryDy=0;" edge="1" parent="1" source="wY15i3KDMr4KIe2DztnB-4" target="wY15i3KDMr4KIe2DztnB-1">
          <mxGeometry relative="1" as="geometry" />
        </mxCell>
        <mxCell id="wY15i3KDMr4KIe2DztnB-11" value="JWT Token Generation &amp;amp; Storage" style="edgeLabel;html=1;align=center;verticalAlign=middle;resizable=0;points=[];" vertex="1" connectable="0" parent="wY15i3KDMr4KIe2DztnB-9">
          <mxGeometry x="-0.1988" relative="1" as="geometry">
            <mxPoint x="45" as="offset" />
          </mxGeometry>
        </mxCell>
        <mxCell id="wY15i3KDMr4KIe2DztnB-10" style="edgeStyle=orthogonalEdgeStyle;rounded=0;orthogonalLoop=1;jettySize=auto;html=1;entryX=0.5;entryY=1;entryDx=0;entryDy=0;" edge="1" parent="1" source="wY15i3KDMr4KIe2DztnB-4" target="wY15i3KDMr4KIe2DztnB-3">
          <mxGeometry relative="1" as="geometry" />
        </mxCell>
        <mxCell id="wY15i3KDMr4KIe2DztnB-12" value="JWT Token Verification" style="edgeLabel;html=1;align=center;verticalAlign=middle;resizable=0;points=[];" vertex="1" connectable="0" parent="wY15i3KDMr4KIe2DztnB-10">
          <mxGeometry x="-0.3012" y="-3" relative="1" as="geometry">
            <mxPoint x="-69" y="-3" as="offset" />
          </mxGeometry>
        </mxCell>
        <mxCell id="wY15i3KDMr4KIe2DztnB-4" value="JWT Authentication" style="rounded=0;whiteSpace=wrap;html=1;" vertex="1" parent="1">
          <mxGeometry x="365.5" y="450" width="120" height="60" as="geometry" />
        </mxCell>
      </root>
    </mxGraphModel>
  </diagram>
</mxfile>
